<svg xmlns="http://www.w3.org/2000/svg" viewBox="0 0 64 64" width="64" height="64">
  <rect x="9" y="12" width="36" height="27" rx="3.5" fill="#2b3142"/>
  <rect x="9.7" y="12.7" width="34.6" height="25.6" rx="3" fill="none" stroke="#444d63" stroke-width="1.2"/>
  <rect x="13" y="16" width="28" height="19" rx="1.8" fill="#13314a"/>
  <rect x="13" y="16" width="28" height="19" rx="1.8" fill="none" stroke="#4da6ff" stroke-width="1.6"/>
  <path d="M16 32 L24 19" stroke="#4da6ff" stroke-width="1.4" opacity="0.55" stroke-linecap="round"/>
  <rect x="24" y="39" width="6" height="4" fill="#2b3142"/>
  <path d="M18 47 q9 -4 18 0 z" fill="#2b3142"/>
  <rect x="48" y="14" width="9" height="29" rx="2.2" fill="#2b3142"/>
  <rect x="48.6" y="14.6" width="7.8" height="27.8" rx="1.8" fill="none" stroke="#444d63" stroke-width="1"/>
  <rect x="50.5" y="17" width="4" height="2" rx="1" fill="#5b6679"/>
  <rect x="50.5" y="21" width="4" height="2" rx="1" fill="#5b6679"/>
  <circle cx="52.5" cy="30" r="2.1" fill="#4da6ff"/>
  <path d="M12 52 h26 l3 6 h-32 z" fill="#2b3142"/>
  <rect x="15" y="54.2" width="22" height="1.8" rx="0.9" fill="#5b6679"/>
</svg>
